# xmcd CD database file
#
# Track frame offsets:
#	150
#	23325
#	49326
#	76391
#	93703
#	115073
#	140473
#	158675
#	186267
#	204988
#	224085
#	239689
#	259233
#	277513
#	296091
#
# Disc length: 4242 seconds
#
# Revision: 0
# Processed by: cddbd v1.5.1PL0 Copyright (c) Steve Scherf et al.
# Submitted via: CDex 1.51
#
DISCID=da10900f
DTITLE=Olga Tañon - Exitos 1
DYEAR=2004
DGENRE=Salsa
TTITLE0=Ah ya Albi (duo con Hakim)
TTITLE1=El frio de tu adios
TTITLE2=Mi eterno amor secreto
TTITLE3=Beso a beso
TTITLE4=Yo por ti
TTITLE5=Prohibido el paso
TTITLE6=Mentiras
TTITLE7=Medley Boogaloo
TTITLE8=Wanna have cun
TTITLE9=Quien diria
TTITLE10=Somos novios
TTITLE11=Caramelo (Remix)
TTITLE12=Quiero que tu me quieras
TTITLE13=Tu te lo pierdes
TTITLE14=Receta de amor
EXTD=YEAR: 2004
EXTT0=
EXTT1=
EXTT2=
EXTT3=
EXTT4=
EXTT5=
EXTT6=
EXTT7=
EXTT8=
EXTT9=
EXTT10=
EXTT11=
EXTT12=
EXTT13=
EXTT14=
PLAYORDER=
